PathFileType	4	(X/Y/Z)	13_coords_data.trc
DataRate	CameraRate	NumFrames	NumMarkers	Units	OrigDataRate	OrigDataStartFrame	OrigNumFrames
30.0	30.0	7	21	m	30.0	21	51
Frame#	Time	THUMB_TIP	THUMB_IP	THUMB_MCP	THUMB_CMC	INDEX_TIP	INDEX_DIP	INDEX_PIP	INDEX_MCP	MIDDLE_TIP	MIDDLE_DIP	MIDDLE_PIP	MIDDLE_MCP	RING_TIP	RING_DIP	RING_PIP	RING_MCP	PINKY_TIP	PINKY_DIP	PINKY_PIP	PINKY_MCP	WRIST
X1	Y1	Z1	X2	Y2	Z2	X3	Y3	Z3	X4	Y4	Z4	X5	Y5	Z5	X6	Y6	Z6	X7	Y7	Z7	X8	Y8	Z8	X9	Y9	Z9	X10	Y10	Z10	X11	Y11	Z11	X12	Y12	Z12	X13	Y13	Z13	X14	Y14	Z14	X15	Y15	Z15	X16	Y16	Z16	X17	Y17	Z17	X18	Y18	Z18	X19	Y19	Z19	X20	Y20	Z20	X21	Y21	Z21
19	0.6666666666666637	0.46438544073098104	-0.03769275743549316	-0.1735080311975865	0.47265110290949325	-0.04052304489286107	-0.15225554189258084	0.4665923720640736	-0.03634792660419184	-0.12201186209301973	0.47007508600041353	-0.03305688100619675	-0.07766178066683133	0.5615889109546113	0.038600182143954886	-0.16928566241988924	0.5515437497074352	0.027171298462474236	-0.1594634756311229	0.537528126668597	0.012204314137745254	-0.1449183209720446	0.5141876687065754	-0.010754697328067886	-0.11768336349758235	0.5848086066499116	0.05540383841080809	-0.13974483351993167	0.5729238132941031	0.04444094913425267	-0.13158598889586143	0.5537691326504468	0.026409731438038264	-0.11904075283466037	0.5252876891003135	-0.0016754515805940118	-0.09913653747432766	0.5995639086762942	0.042555207141496076	-0.10142412889550317	0.5852044512072866	0.03319414397327958	-0.09584053887147542	0.5667570013269154	0.017765799391965764	-0.08937232772839682	0.5351939168613378	-0.005810539474171872	-0.0802811903579756	0.6001151829181708	0.01567553998511595	-0.039777124798294095	0.5850139291866956	0.00866789795133971	-0.043757713807983545	0.5668143736486553	-9.267705703208673e-05	-0.04948837892998059	0.5351632454415797	-0.013912826301591963	-0.05988515771368874	0.46228308100186094	-0.023011742144276925	-0.051989820119430985
20	0.6999999999999968	0.464088170681974	-0.038015042416621236	-0.1735122198796889	0.47239928089546285	-0.040631384715557384	-0.15225004219267757	0.46629728431273154	-0.03634582787066687	-0.12203051803637177	0.4700078670377535	-0.03300393834244442	-0.07770272370570463	0.5615117428965366	0.03895909316148449	-0.16932718684971088	0.5513687290086577	0.027597061764870534	-0.15952802811986816	0.537264584328	0.012680890795076505	-0.1450162818628889	0.5139099532205906	-0.010305693550345829	-0.1178167553970178	0.5852846471740145	0.05569353887693518	-0.13897799621399043	0.5732057107827888	0.044825603811121995	-0.13097879106210247	0.5537690744832959	0.026923446622731606	-0.1186849109844621	0.525089446678634	-0.0012624055062487871	-0.09921224784483673	0.5994158663476068	0.04289936985635279	-0.10164122633752015	0.5850615711832443	0.033526737672532114	-0.09606377384725406	0.5666022633583184	0.018119088239692327	-0.08958008102762244	0.53504596961012	-0.005446668443419123	-0.08043807518482166	0.6001506369898936	0.016111026200262613	-0.04054990190935148	0.5850272610449495	0.009092650630103227	-0.0444262280545662	0.5667818503281736	0.0003073209076555061	-0.04997014259611876	0.5351032586702118	-0.013637682983740018	-0.060113472820314096	0.4622830810018609	-0.023011742144276925	-0.051989820119430985
21	0.7333333333333302	0.4647357883560214	-0.037865393362401134	-0.17363948500608828	0.47273159623533423	-0.04028445464422603	-0.1522335232460576	0.46620537389357974	-0.036081555082379424	-0.12209112690437612	0.4700085133881245	-0.03284619752421081	-0.07776327345470135	0.5621170564041851	0.03945622363830481	-0.16904064014636788	0.5516439404188851	0.02829787904712955	-0.15935533232766408	0.537174223025968	0.013584743946158384	-0.14499703273928394	0.51342566823413	-0.009204079218214312	-0.117972751470728	0.5861246275619276	0.0560511734455581	-0.13801888212835622	0.5737325809544835	0.04538484384954011	-0.13023000584046684	0.5538244768073954	0.02779462428084989	-0.11824413437469672	0.5246970466221543	-0.0002676067805430504	-0.09926383090871127	0.5992382496110975	0.04371385081311829	-0.10174506187033239	0.5848903353911574	0.03430163455708113	-0.09621807872517668	0.5664003875286234	0.01892050361918829	-0.0897587739551432	0.534762005117533	-0.00451833096368548	-0.0805742965172982	0.6001866089350476	0.01713270237800002	-0.04178697289585265	0.5850164732297377	0.010098858807634614	-0.04544648479091595	0.5666971313714981	0.0012591614940650198	-0.050649703437621096	0.5349777230404569	-0.012903704977025643	-0.06035412508194038	0.4622830810018609	-0.023011742144276925	-0.051989820119430985
22	0.7666666666666633	0.46666888949506113	-0.03691823537259531	-0.17388487888262855	0.47389602960350585	-0.03922512773257014	-0.15219509572344503	0.46645946371776326	-0.03545092527725191	-0.12220721677788976	0.47009920484115036	-0.032565128646222075	-0.07784152662931815	0.5633398465208515	0.04006362468811919	-0.16851655338607796	0.5522917787074562	0.029340598053132716	-0.15897942083084982	0.5371374980771821	0.015108640150472752	-0.144844040190916	0.5126115324064355	-0.007256262641696765	-0.11816213199427156	0.5873300700819581	0.056325981373558154	-0.1371164601976702	0.5744897336708352	0.04606258943234276	-0.12951458235662416	0.5538787260493447	0.029110734671621397	-0.11780003861825034	0.5239954271299583	0.0015392820353897774	-0.09928109247591688	0.5992009033684841	0.04476059124154985	-0.10194385339986978	0.5848254405303734	0.03537996508592767	-0.09643477715075521	0.5661915292463059	0.02017995109530002	-0.08996045062653496	0.534282632430884	-0.0028385137098434488	-0.08064952070320619	0.6002810059708656	0.018719691187498166	-0.043566429184912714	0.5850167319269569	0.011708529195837203	-0.04685968675746088	0.5665586310957662	0.0028832271818939326	-0.05157398172789773	0.5347554518977042	-0.011565388464942039	-0.06055611676284167	0.46228308100186094	-0.023011742144276925	-0.051989820119430985
23	0.7999999999999965	0.47007822804658866	-0.03509313774740641	-0.1741423312964689	0.4760005992923265	-0.037412018201215425	-0.15206183510030968	0.4671529160593916	-0.03440199592167981	-0.12237213541697944	0.47029687203596277	-0.032146760643109284	-0.07793206954556475	0.5652527123173725	0.040401151877327734	-0.1677073032984538	0.5533767632129698	0.030456484923465754	-0.1583229848870613	0.5371917572161805	0.017123229061764333	-0.14445648922268017	0.5114922831124276	-0.004532472645366048	-0.11829920135940353	0.5890509777660049	0.056095941236182334	-0.1362367275281573	0.5756046236141275	0.04653365202697368	-0.12876958717178694	0.5540274147773012	0.030676997055972377	-0.11726306285109778	0.523003724116323	0.004105054904159355	-0.09916305099881889	0.599454477899138	0.0456675095656508	-0.10228882758149438	0.5849565349899066	0.03651464521324266	-0.09671794564529373	0.5659942064390725	0.021779806039718297	-0.09012290285084579	0.5335997044025103	-0.00045043856986237696	-0.08057652676348248	0.6005901801052762	0.020308230832558838	-0.04577493600346172	0.5851492235368043	0.013467679331740534	-0.048564867080606366	0.5664507216763454	0.004826501057979993	-0.05262788138226748	0.5344248279154232	-0.009697034372097013	-0.060646141693920685	0.4622830810018609	-0.023011742144276925	-0.051989820119430985
24	0.8333333333333297	0.4748329612582653	-0.0324649311580546	-0.1741787817490712	0.47895540604604087	-0.03493010264677876	-0.15170817030872702	0.4682785460259851	-0.033032348609799755	-0.12253244084522835	0.47061124814343086	-0.031637947879864514	-0.07800712054951775	0.5675682676063072	0.040288214183807236	-0.16648257346287254	0.5546901994923096	0.03146505710002745	-0.15730067492682975	0.5372439187449571	0.019421660156798026	-0.14378795088049579	0.5100851377702358	-0.0012799675721437698	-0.11834233594708471	0.5909804389077296	0.05523593031884544	-0.13535121149693857	0.5768294895271309	0.0466650651894861	-0.12798297544194753	0.5541217192165422	0.03233712174070502	-0.11664821677446469	0.5217321784040351	0.007191346139426846	-0.09890686574459367	0.5998958711801643	0.0462378305911455	-0.10285210620194546	0.5851840056907776	0.03753822016538211	-0.09711819023969603	0.5657098104526201	0.023600856331493225	-0.09028550495586085	0.5326841576392337	0.002485608543265183	-0.08037725581227328	0.6010483850002304	0.021750148005511005	-0.04840660888710435	0.5853514405656293	0.015266179406631886	-0.05054298119215683	0.5663128499644627	0.007037371972167583	-0.053803474272609675	0.5339602439637505	-0.00737458886378195	-0.060621664708915834	0.4622830810018609	-0.023011742144276925	-0.051989820119430985
25	0.8666666666666629	0.4805470862072994	-0.029195017650394672	-0.1737761990031872	0.48246358690418445	-0.031928555919673696	-0.15104175831050182	0.469730772861204	-0.03143872981649909	-0.12264359786064993	0.47101490319170675	-0.03107469345375935	-0.0780553876832848	0.5697843353676346	0.03981084158109516	-0.16480670678650433	0.5558571117265582	0.03241232759252799	-0.1559019646559079	0.5370717806331651	0.021981186311606726	-0.14285158304121698	0.5084023090511793	0.0023092492216255645	-0.11826068260350353	0.5926979636533143	0.05385938420419889	-0.13441501348051532	0.5778158763369297	0.04654562945778351	-0.12713267397889944	0.5539496922157674	0.034100586820749346	-0.11595520918328561	0.5201389269365368	0.010655863830804857	-0.09853898008059109	0.6003370078013369	0.046453019230975	-0.10355197687154283	0.5853432923044004	0.03841506922781068	-0.09758709168039625	0.5652287678627728	0.02559568823829017	-0.09042822609060575	0.531482352800936	0.005875313292997841	-0.08008380167494455	0.6015181655286796	0.022972912488454345	-0.051451194831443225	0.5855192474947634	0.017036779513342815	-0.05279169736624778	0.5660823202287641	0.009448116539259921	-0.05512194879517951	0.5333223934441234	-0.004643855320706436	-0.06051518318308602	0.4622830810018609	-0.023011742144276925	-0.051989820119430985
